HIERARCHY
ROOT mixamorig:Hips
{
	OFFSET 0.000000 103.991501 0.000000
	CHANNELS 6 Xposition Yposition Zposition Xrotation Yrotation Zrotation
	JOINT mixamorig:Spine
	{
		OFFSET 0.000000 10.181602 0.131500
		CHANNELS 3 Xrotation Yrotation Zrotation
		JOINT mixamorig:Spine1
		{
			OFFSET 0.000000 10.083504 -1.000800
			CHANNELS 3 Xrotation Yrotation Zrotation
			JOINT mixamorig:Spine2
			{
				OFFSET 0.000000 9.100006 -1.373400
				CHANNELS 3 Xrotation Yrotation Zrotation
				JOINT mixamorig:Neck
				{
					OFFSET 0.000000 16.671707 -2.516200
					CHANNELS 3 Xrotation Yrotation Zrotation
					JOINT mixamorig:Head
					{
						OFFSET 0.000000 9.617905 1.685000
						CHANNELS 3 Xrotation Yrotation Zrotation
						JOINT mixamorig:HeadTop_End
						{
							OFFSET 0.000000 17.815201 2.585000
							CHANNELS 3 Xrotation Yrotation Zrotation
							End Site
							{
								OFFSET 0.000000 13.794495 0.000000
							}
						}
						JOINT mixamorig:LeftEye
						{
							OFFSET 3.067600 6.409500 9.283600
							CHANNELS 3 Xrotation Yrotation Zrotation
							End Site
							{
								OFFSET 0.000000 13.794495 0.000000
							}
						}
						JOINT mixamorig:RightEye
						{
							OFFSET -3.067600 6.409500 9.283500
							CHANNELS 3 Xrotation Yrotation Zrotation
							End Site
							{
								OFFSET 0.000000 13.794495 0.000000
							}
						}
					}
				}
				JOINT mixamorig:LeftShoulder
				{
					OFFSET 4.570400 10.945999 -2.628000
					CHANNELS 3 Xrotation Yrotation Zrotation
					JOINT mixamorig:LeftArm
					{
						OFFSET 10.592400 -0.524597 -2.232100
						CHANNELS 3 Xrotation Yrotation Zrotation
						JOINT mixamorig:LeftForeArm
						{
							OFFSET 27.841499 0.000000 0.000000
							CHANNELS 3 Xrotation Yrotation Zrotation
							JOINT mixamorig:LeftHand
							{
								OFFSET 28.328800 0.000000 0.000000
								CHANNELS 3 Xrotation Yrotation Zrotation
								JOINT mixamorig:LeftHandThumb1
								{
									OFFSET 2.466103 -1.576218 2.681689
									CHANNELS 3 Xrotation Yrotation Zrotation
									JOINT mixamorig:LeftHandThumb2
									{
										OFFSET 3.229782 -1.864716 1.864716
										CHANNELS 3 Xrotation Yrotation Zrotation
										JOINT mixamorig:LeftHandThumb3
										{
											OFFSET 2.652611 -1.531494 1.531488
											CHANNELS 3 Xrotation Yrotation Zrotation
											JOINT mixamorig:LeftHandThumb4
											{
												OFFSET 1.954605 -1.128494 1.128493
												CHANNELS 3 Xrotation Yrotation Zrotation
												End Site
												{
													OFFSET -0.000404 2.523392 0.000683
												}
											}
										}
									}
								}
								JOINT mixamorig:LeftHandIndex1
								{
									OFFSET 9.109299 -0.518112 2.259867
									CHANNELS 3 Xrotation Yrotation Zrotation
									JOINT mixamorig:LeftHandIndex2
									{
										OFFSET 3.676399 0.000000 0.000000
										CHANNELS 3 Xrotation Yrotation Zrotation
										JOINT mixamorig:LeftHandIndex3
										{
											OFFSET 2.883102 0.000000 0.000000
											CHANNELS 3 Xrotation Yrotation Zrotation
											JOINT mixamorig:LeftHandIndex4
											{
												OFFSET 2.392700 0.000000 0.000000
												CHANNELS 3 Xrotation Yrotation Zrotation
												End Site
												{
													OFFSET 0.000000 2.392700 0.001080
												}
											}
										}
									}
								}
								JOINT mixamorig:LeftHandMiddle1
								{
									OFFSET 9.533401 0.000000 0.000000
									CHANNELS 3 Xrotation Yrotation Zrotation
									JOINT mixamorig:LeftHandMiddle2
									{
										OFFSET 3.698196 0.000000 0.000000
										CHANNELS 3 Xrotation Yrotation Zrotation
										JOINT mixamorig:LeftHandMiddle3
										{
											OFFSET 2.950897 0.000000 0.000000
											CHANNELS 3 Xrotation Yrotation Zrotation
											JOINT mixamorig:LeftHandMiddle4
											{
												OFFSET 2.833900 0.000000 0.000000
												CHANNELS 3 Xrotation Yrotation Zrotation
												End Site
												{
													OFFSET 0.000000 2.833893 0.001278
												}
											}
										}
									}
								}
								JOINT mixamorig:LeftHandRing1
								{
									OFFSET 9.104500 -0.043060 -1.865119
									CHANNELS 3 Xrotation Yrotation Zrotation
									JOINT mixamorig:LeftHandRing2
									{
										OFFSET 3.153999 0.000000 0.000000
										CHANNELS 3 Xrotation Yrotation Zrotation
										JOINT mixamorig:LeftHandRing3
										{
											OFFSET 2.937698 0.000000 0.000000
											CHANNELS 3 Xrotation Yrotation Zrotation
											JOINT mixamorig:LeftHandRing4
											{
												OFFSET 2.647499 0.000000 0.000000
												CHANNELS 3 Xrotation Yrotation Zrotation
												End Site
												{
													OFFSET 0.000000 2.647507 0.001195
												}
											}
										}
									}
								}
								JOINT mixamorig:LeftHandPinky1
								{
									OFFSET 8.077797 -0.486984 -3.806321
									CHANNELS 3 Xrotation Yrotation Zrotation
									JOINT mixamorig:LeftHandPinky2
									{
										OFFSET 3.599998 0.000000 0.000000
										CHANNELS 3 Xrotation Yrotation Zrotation
										JOINT mixamorig:LeftHandPinky3
										{
											OFFSET 2.114197 0.000000 0.000000
											CHANNELS 3 Xrotation Yrotation Zrotation
											JOINT mixamorig:LeftHandPinky4
											{
												OFFSET 1.975700 0.000000 0.000000
												CHANNELS 3 Xrotation Yrotation Zrotation
												End Site
												{
													OFFSET 0.000000 1.975693 0.000892
												}
											}
										}
									}
								}
							}
						}
					}
				}
				JOINT mixamorig:RightShoulder
				{
					OFFSET -4.570000 10.946198 -2.628000
					CHANNELS 3 Xrotation Yrotation Zrotation
					JOINT mixamorig:RightArm
					{
						OFFSET -10.592800 -0.524796 -2.232100
						CHANNELS 3 Xrotation Yrotation Zrotation
						JOINT mixamorig:RightForeArm
						{
							OFFSET -27.841499 0.000000 0.000000
							CHANNELS 3 Xrotation Yrotation Zrotation
							JOINT mixamorig:RightHand
							{
								OFFSET -28.328800 0.000000 0.000000
								CHANNELS 3 Xrotation Yrotation Zrotation
								JOINT mixamorig:RightHandPinky1
								{
									OFFSET -8.076698 -0.486725 -3.806227
									CHANNELS 3 Xrotation Yrotation Zrotation
									JOINT mixamorig:RightHandPinky2
									{
										OFFSET -3.599998 0.000000 0.000000
										CHANNELS 3 Xrotation Yrotation Zrotation
										JOINT mixamorig:RightHandPinky3
										{
											OFFSET -2.114197 0.000000 0.000000
											CHANNELS 3 Xrotation Yrotation Zrotation
											JOINT mixamorig:RightHandPinky4
											{
												OFFSET -1.975700 0.000000 0.000000
												CHANNELS 3 Xrotation Yrotation Zrotation
												End Site
												{
													OFFSET 0.000000 1.975693 0.000919
												}
											}
										}
									}
								}
								JOINT mixamorig:RightHandRing1
								{
									OFFSET -9.103600 -0.043030 -1.865120
									CHANNELS 3 Xrotation Yrotation Zrotation
									JOINT mixamorig:RightHandRing2
									{
										OFFSET -3.153999 0.000000 0.000000
										CHANNELS 3 Xrotation Yrotation Zrotation
										JOINT mixamorig:RightHandRing3
										{
											OFFSET -2.937698 0.000000 0.000000
											CHANNELS 3 Xrotation Yrotation Zrotation
											JOINT mixamorig:RightHandRing4
											{
												OFFSET -2.647499 0.000000 0.000000
												CHANNELS 3 Xrotation Yrotation Zrotation
												End Site
												{
													OFFSET 0.000000 2.647507 0.001231
												}
											}
										}
									}
								}
								JOINT mixamorig:RightHandMiddle1
								{
									OFFSET -9.532501 0.000000 0.000000
									CHANNELS 3 Xrotation Yrotation Zrotation
									JOINT mixamorig:RightHandMiddle2
									{
										OFFSET -3.698196 0.000000 0.000000
										CHANNELS 3 Xrotation Yrotation Zrotation
										JOINT mixamorig:RightHandMiddle3
										{
											OFFSET -2.950897 0.000000 0.000000
											CHANNELS 3 Xrotation Yrotation Zrotation
											JOINT mixamorig:RightHandMiddle4
											{
												OFFSET -2.833900 0.000000 0.000000
												CHANNELS 3 Xrotation Yrotation Zrotation
												End Site
												{
													OFFSET 0.000000 2.833893 0.001318
												}
											}
										}
									}
								}
								JOINT mixamorig:RightHandIndex1
								{
									OFFSET -9.108299 -0.517853 2.259859
									CHANNELS 3 Xrotation Yrotation Zrotation
									JOINT mixamorig:RightHandIndex2
									{
										OFFSET -3.676399 0.000000 0.000000
										CHANNELS 3 Xrotation Yrotation Zrotation
										JOINT mixamorig:RightHandIndex3
										{
											OFFSET -2.883102 0.000000 0.000000
											CHANNELS 3 Xrotation Yrotation Zrotation
											JOINT mixamorig:RightHandIndex4
											{
												OFFSET -2.392700 0.000000 0.000000
												CHANNELS 3 Xrotation Yrotation Zrotation
												End Site
												{
													OFFSET 0.000000 2.392700 0.001113
												}
											}
										}
									}
								}
								JOINT mixamorig:RightHandThumb1
								{
									OFFSET -2.464798 -1.573944 2.681868
									CHANNELS 3 Xrotation Yrotation Zrotation
									JOINT mixamorig:RightHandThumb2
									{
										OFFSET -3.229782 -1.864716 1.864716
										CHANNELS 3 Xrotation Yrotation Zrotation
										JOINT mixamorig:RightHandThumb3
										{
											OFFSET -2.652542 -1.531448 1.531448
											CHANNELS 3 Xrotation Yrotation Zrotation
											JOINT mixamorig:RightHandThumb4
											{
												OFFSET -1.954605 -1.128494 1.128493
												CHANNELS 3 Xrotation Yrotation Zrotation
												End Site
												{
													OFFSET 0.000412 2.523392 0.000704
												}
											}
										}
									}
								}
							}
						}
					}
				}
			}
		}
	}
	JOINT mixamorig:LeftUpLeg
	{
		OFFSET 8.207800 -6.751701 -1.599600
		CHANNELS 3 Xrotation Yrotation Zrotation
		JOINT mixamorig:LeftLeg
		{
			OFFSET 0.000000 -44.370499 0.284600
			CHANNELS 3 Xrotation Yrotation Zrotation
			JOINT mixamorig:LeftFoot
			{
				OFFSET 0.000000 -44.427898 -2.982200
				CHANNELS 3 Xrotation Yrotation Zrotation
				JOINT mixamorig:LeftToeBase
				{
					OFFSET 0.000000 -8.728700 10.710600
					CHANNELS 3 Xrotation Yrotation Zrotation
					JOINT mixamorig:LeftToe_End
					{
						OFFSET 0.000000 -0.000700 9.278099
						CHANNELS 3 Xrotation Yrotation Zrotation
						End Site
						{
							OFFSET 0.000000 9.278100 0.000000
						}
					}
				}
			}
		}
	}
	JOINT mixamorig:RightUpLeg
	{
		OFFSET -8.207800 -6.751701 -1.599600
		CHANNELS 3 Xrotation Yrotation Zrotation
		JOINT mixamorig:RightLeg
		{
			OFFSET 0.000000 -44.370499 0.286200
			CHANNELS 3 Xrotation Yrotation Zrotation
			JOINT mixamorig:RightFoot
			{
				OFFSET 0.000000 -44.427700 -2.983800
				CHANNELS 3 Xrotation Yrotation Zrotation
				JOINT mixamorig:RightToeBase
				{
					OFFSET 0.000000 -8.728700 10.710600
					CHANNELS 3 Xrotation Yrotation Zrotation
					JOINT mixamorig:RightToe_End
					{
						OFFSET 0.000000 -0.000700 9.278100
						CHANNELS 3 Xrotation Yrotation Zrotation
						End Site
						{
							OFFSET 0.000000 9.278100 0.000000
						}
					}
				}
			}
		}
	}
}
MOTION
Frames: 4
Frame Time: 0.033333
0.142436 103.393768 1.422167 -3.753066 -5.218738 -3.753993 3.297056 1.542832 2.726711 1.151890 0.339457 1.552798 1.126015 0.361543 1.555886 5.626309 -0.078963 0.454682 -7.563347 1.375723 -0.080565 -0.000000 -0.000000 -0.000000 -0.000000 -0.000000 -0.000000 -0.000000 -0.000000 -0.000000 1.049449 -17.442076 -12.319429 3.916254 -19.989259 -69.765253 -0.000012 -1.459360 -0.000003 -33.230414 -1.364833 -6.186610 -0.663003 2.160312 4.832505 11.853565 25.421611 17.058326 -13.813941 3.537271 9.035987 0.000001 -0.000000 0.000003 0.019864 -0.969580 -7.593546 0.267869 1.752892 -17.375720 0.057681 0.820953 -8.038002 -0.000001 0.000000 -0.000000 -0.076310 2.665776 -15.696833 0.268783 1.755804 -17.405501 0.300527 1.853973 -18.413343 0.000000 -0.000000 -0.000004 0.136910 3.641769 -21.133532 0.386624 2.094789 -20.911934 0.283043 1.800641 -17.864992 0.000000 0.000001 -0.000000 0.927726 5.555919 -27.128034 0.268796 1.755845 -17.405878 0.241912 1.667696 -16.505914 -0.000000 0.000000 -0.000001 1.203181 15.343660 14.705964 13.158862 27.555123 58.785164 -0.000002 6.693745 0.000011 -20.179102 -0.514089 6.782815 0.748879 -4.885242 26.473762 0.214452 -1.398379 17.437249 0.193011 -1.328185 16.535820 -0.000001 0.000000 0.000002 0.030605 -3.075756 20.451014 0.308439 -1.668283 20.948547 0.225820 -1.434041 17.897085 0.000001 -0.000001 0.000003 -0.136227 -2.205105 14.998879 0.214449 -1.398341 17.436886 0.239769 -1.476530 18.446270 0.000001 0.000001 -0.000002 0.038559 1.262287 6.823701 0.213718 -1.396026 17.407053 0.046030 -0.653850 8.053211 0.000001 0.000000 -0.000000 -1.665250 -0.174480 -4.219036 12.710962 -29.825326 -16.130952 -15.549421 -3.559427 -12.707135 0.000001 0.000002 -0.000000 -10.798695 14.736773 10.332039 12.189611 2.033360 4.172209 1.261636 0.515715 -7.112415 -4.928527 0.000008 0.000003 0.000000 0.000000 0.000000 0.608173 -10.390716 3.499035 7.401568 -9.743683 -3.276840 -3.687363 -1.649657 3.200333 -7.282875 -0.000007 -0.000000 -0.000000 0.000002 0.000000 
0.143631 103.395691 1.428346 -3.741601 -5.228855 -3.754279 3.287691 1.528406 2.721629 1.148752 0.333684 1.550972 1.122875 0.355780 1.554089 5.627290 -0.078062 0.457614 -7.557748 1.375817 -0.084812 0.000000 -0.000000 0.000000 0.000000 -0.000000 0.000000 0.000000 -0.000000 0.000000 1.049820 -17.453893 -12.299613 3.944162 -20.009350 -69.775935 -0.000008 -1.451326 -0.000002 -33.222515 -1.347289 -6.187076 -0.663004 2.160313 4.832504 11.853564 25.421609 17.058331 -13.813938 3.537271 9.035984 -0.000001 0.000000 -0.000001 0.019864 -0.969580 -7.593546 0.267870 1.752892 -17.375720 0.057682 0.820953 -8.038005 0.000001 0.000001 0.000003 -0.076310 2.665777 -15.696830 0.268781 1.755804 -17.405503 0.300526 1.853974 -18.413345 0.000000 -0.000000 0.000001 0.136909 3.641769 -21.133529 0.386623 2.094789 -20.911930 0.283044 1.800641 -17.864985 -0.000000 -0.000001 0.000002 0.927726 5.555920 -27.128031 0.268795 1.755845 -17.405882 0.241911 1.667697 -16.505915 -0.000000 0.000000 -0.000004 1.204429 15.352445 14.677330 13.171919 27.560339 58.767815 -0.000000 6.683429 0.000004 -20.156727 -0.515481 6.789118 0.748875 -4.885241 26.473762 0.214454 -1.398378 17.437251 0.193007 -1.328184 16.535818 0.000000 0.000001 0.000002 0.030606 -3.075756 20.451016 0.308440 -1.668283 20.948550 0.225820 -1.434043 17.897082 0.000000 -0.000000 -0.000001 -0.136229 -2.205105 14.998882 0.214450 -1.398342 17.436884 0.239771 -1.476529 18.446273 0.000001 -0.000001 0.000001 0.038554 1.262288 6.823701 0.213717 -1.396025 17.407053 0.046029 -0.653850 8.053213 -0.000001 0.000001 -0.000000 -1.665250 -0.174479 -4.219038 12.710962 -29.825326 -16.130952 -15.549423 -3.559427 -12.707139 0.000001 -0.000001 -0.000001 -10.800752 14.728866 10.330427 12.182791 2.047534 4.172654 1.266300 0.515412 -7.114501 -4.932663 0.000005 0.000003 0.000000 -0.000000 -0.000000 0.613215 -10.390202 3.500746 7.372620 -9.743765 -3.276440 -3.674890 -1.641065 3.199735 -7.277527 -0.000004 -0.000000 -0.000000 -0.000001 0.000000 
0.144827 103.397606 1.434525 -3.730134 -5.238974 -3.754565 3.278325 1.513981 2.716546 1.145614 0.327912 1.549145 1.119736 0.350017 1.552292 5.628271 -0.077161 0.460546 -7.552147 1.375911 -0.089059 0.000000 0.000000 -0.000000 0.000000 0.000000 -0.000000 0.000000 0.000000 -0.000000 1.050196 -17.465707 -12.279791 3.972070 -20.029444 -69.786590 -0.000011 -1.443292 -0.000001 -33.214605 -1.329746 -6.187544 -0.663006 2.160313 4.832504 11.853563 25.421607 17.058327 -13.813941 3.537272 9.035990 0.000001 -0.000003 0.000003 0.019863 -0.969580 -7.593547 0.267870 1.752893 -17.375716 0.057681 0.820953 -8.038005 0.000001 -0.000000 -0.000002 -0.076312 2.665777 -15.696833 0.268783 1.755804 -17.405504 0.300525 1.853974 -18.413345 0.000000 0.000000 -0.000003 0.136907 3.641770 -21.133532 0.386624 2.094789 -20.911932 0.283042 1.800641 -17.864990 0.000001 0.000001 0.000003 0.927724 5.555920 -27.128036 0.268796 1.755845 -17.405888 0.241911 1.667697 -16.505910 0.000001 -0.000001 -0.000004 1.205683 15.361227 14.648695 13.184971 27.565539 58.750453 -0.000006 6.673114 -0.000003 -20.134354 -0.516873 6.795422 0.748878 -4.885242 26.473762 0.214454 -1.398380 17.437246 0.193011 -1.328186 16.535816 0.000000 0.000000 -0.000002 0.030605 -3.075756 20.451012 0.308440 -1.668284 20.948540 0.225819 -1.434042 17.897082 -0.000001 -0.000001 0.000001 -0.136230 -2.205105 14.998882 0.214448 -1.398341 17.436880 0.239773 -1.476531 18.446271 0.000001 -0.000001 -0.000001 0.038557 1.262287 6.823703 0.213718 -1.396026 17.407053 0.046028 -0.653849 8.053214 -0.000000 -0.000000 -0.000000 -1.665247 -0.174479 -4.219036 12.710961 -29.825326 -16.130950 -15.549423 -3.559429 -12.707143 0.000001 -0.000001 0.000000 -10.802812 14.720958 10.328822 12.175971 2.061709 4.173103 1.270964 0.515105 -7.116587 -4.936799 0.000003 0.000003 -0.000000 -0.000001 -0.000000 0.618256 -10.389682 3.502457 7.343668 -9.743841 -3.276041 -3.662415 -1.632462 3.199134 -7.272177 -0.000003 -0.000000 -0.000000 0.000002 0.000000 
0.146022 103.399521 1.440703 -3.718668 -5.249092 -3.754847 3.268957 1.499556 2.711461 1.142476 0.322141 1.547318 1.116596 0.344254 1.550494 5.629251 -0.076261 0.463477 -7.546548 1.376003 -0.093307 0.000000 0.000000 0.000000 0.000000 0.000000 0.000000 0.000000 0.000000 0.000000 1.050575 -17.477522 -12.259970 3.999976 -20.049551 -69.797259 -0.000003 -1.435258 0.000001 -33.206713 -1.312201 -6.188016 -0.663004 2.160313 4.832504 11.853564 25.421606 17.058327 -13.813941 3.537270 9.035987 -0.000002 -0.000000 0.000001 0.019864 -0.969580 -7.593547 0.267870 1.752893 -17.375720 0.057682 0.820953 -8.038003 -0.000001 -0.000000 -0.000001 -0.076311 2.665777 -15.696835 0.268782 1.755804 -17.405501 0.300526 1.853974 -18.413338 -0.000000 0.000000 0.000000 0.136909 3.641770 -21.133532 0.386623 2.094788 -20.911934 0.283043 1.800640 -17.864992 -0.000000 0.000001 -0.000000 0.927725 5.555919 -27.128031 0.268796 1.755845 -17.405882 0.241911 1.667697 -16.505912 -0.000001 -0.000000 -0.000004 1.206940 15.370012 14.620054 13.198029 27.570742 58.733090 -0.000006 6.662800 -0.000009 -20.111980 -0.518260 6.801727 0.748881 -4.885241 26.473765 0.214453 -1.398380 17.437248 0.193010 -1.328184 16.535818 -0.000000 -0.000001 0.000002 0.030606 -3.075756 20.451014 0.308442 -1.668284 20.948545 0.225824 -1.434043 17.897082 0.000000 0.000001 0.000000 -0.136227 -2.205105 14.998882 0.214449 -1.398341 17.436882 0.239771 -1.476529 18.446268 -0.000000 -0.000000 -0.000001 0.038558 1.262288 6.823702 0.213718 -1.396026 17.407051 0.046030 -0.653849 8.053215 -0.000002 -0.000001 -0.000002 -1.665245 -0.174479 -4.219036 12.710962 -29.825326 -16.130950 -15.549417 -3.559428 -12.707141 -0.000000 0.000002 0.000002 -10.804867 14.713044 10.327213 12.169147 2.075884 4.173550 1.275628 0.514802 -7.118674 -4.940935 -0.000001 0.000002 0.000000 -0.000000 -0.000000 0.623297 -10.389164 3.504168 7.314720 -9.743920 -3.275642 -3.649942 -1.623869 3.198530 -7.266829 0.000002 0.000000 0.000000 0.000000 0.000000 
